<svg width="194" height="70" viewBox="0 0 194 70" fill="none" xmlns="http://www.w3.org/2000/svg">
<path d="M54.8003 4.02927L55.1144 3.79024C55.3239 3.63089 55.5915 3.44878 55.9172 3.2439C56.243 3.01626 56.6037 2.82276 56.9993 2.66341C57.3949 2.50407 57.7788 2.41301 58.1511 2.39024C58.5234 2.75447 58.9656 3.14146 59.4775 3.55122C60.2221 4.14309 60.8737 4.74634 61.4322 5.36098C61.8976 5.88455 62.1303 6.40813 62.1303 6.93171C62.1303 7.04553 62.0837 7.29594 61.9906 7.68293C61.9208 8.04715 61.2111 8.53659 59.8615 9.15122C57.1622 10.3805 54.9399 11.8602 53.1947 13.5902C51.4727 15.2976 50.1114 17.0049 49.1108 18.7122C48.1335 20.3967 47.4587 21.8195 47.0864 22.9805L46.493 24.722C43.7937 23.0374 42.444 20.9203 42.444 18.3707C42.444 17.4829 42.828 15.8325 43.5959 13.4195C44.3871 11.0065 46.1788 8.51382 48.9712 5.94146C45.4808 6.03252 40.2683 7.75122 33.3339 11.0976C26.3995 14.4439 21.3733 17.3463 18.2551 19.8049L13.5779 23.5268C18.0922 22.9122 22.2343 22.6049 26.004 22.6049C28.075 22.6049 30.879 22.787 34.416 23.1512C37.9762 23.4927 41.0711 24.278 43.7006 25.5073C48.2615 28.626 50.5419 31.2553 50.5419 33.3951C50.5419 37.652 48.9945 41.9431 45.8996 46.2683C42.828 50.5707 39.1165 54.4976 34.765 58.0488C30.4369 61.6228 26.1901 64.5024 22.0248 66.6878C17.8828 68.8959 14.753 70 12.6355 70C10.9601 70 9.13338 69.7837 7.15545 69.3512C5.20079 68.9187 3.51373 67.9512 2.09428 66.4488C0.698093 64.9463 0 62.5902 0 59.3805C0 56.9675 1.07041 54.4862 3.21123 51.9366C5.35205 49.387 7.78374 47.0423 10.5063 44.9024C13.2521 42.7398 15.6955 40.987 17.8363 39.6439L21.0475 37.6293C21.5827 37.4244 22.1179 37.3219 22.6531 37.3219C23.4908 37.3219 24.4682 37.6407 25.5851 38.278C26.7021 38.9154 27.6794 39.8374 28.5171 41.0439C29.0988 41.8862 29.3897 42.626 29.3897 43.2634C29.3897 43.5138 29.3432 43.7415 29.2501 43.9463C26.2716 44.3789 22.9091 46.0179 19.1626 48.8634C15.4395 51.6862 12.2399 54.6341 9.56387 57.7073C7.12055 60.5301 5.89888 62.5333 5.89888 63.7171C5.89888 63.8309 5.91052 63.9333 5.93379 64.0244C10.9833 63.5008 16.5215 61.2016 22.5484 57.1268C28.5985 53.0748 33.8459 48.6585 38.2904 43.878C42.7582 39.0976 45.1433 35.387 45.4458 32.7463C41.8158 30.4244 36.6382 29.2407 29.9133 29.1951H27.435C21.7572 29.1951 16.7077 29.4 12.2864 29.8098C9.88965 30.0146 8.14442 30.1171 7.05074 30.1171C6.02687 30.0943 5.22406 29.878 4.64232 29.4683C4.06057 29.0585 3.64172 28.5463 3.38575 27.9317C3.15305 27.3171 3.01343 26.7138 2.96689 26.122C2.94362 25.8033 2.93199 25.5187 2.93199 25.2683C2.93199 25.0179 2.95526 24.7333 3.0018 24.4146L3.07161 23.9366H7.67902L7.5045 22.9805C7.36488 22.3659 7.2369 21.6033 7.12055 20.6927C7.05074 20.078 7.01583 19.452 7.01583 18.8146C7.01583 18.5187 7.02747 18.2114 7.05074 17.8927C11.9607 13.3626 18.5344 9.27642 26.7719 5.63415C35.0094 1.96911 40.8152 0.113821 44.1893 0.0682927C44.6314 0.0227642 45.0503 0 45.4458 0C46.3999 0 47.4121 0.15935 48.4825 0.478049C49.5762 0.773984 50.6117 1.2065 51.5891 1.77561C52.5664 2.34472 53.3459 2.85691 53.9277 3.3122L54.8003 4.02927Z" fill="#D10536"/>
<path d="M72.9856 17.3463C73.2183 17.278 73.7186 17.1984 74.4865 17.1073C74.8588 17.039 75.2544 17.0049 75.6733 17.0049C76.1154 17.0049 76.6855 17.0504 77.3836 17.1415C78.1049 17.2325 78.838 17.5512 79.5826 18.0976C80.3505 18.6211 80.8508 19.4862 81.0835 20.6927C80.3389 32.3935 78.07 40.8732 74.2771 46.1317C70.4841 51.3902 67.2031 54.1561 64.434 54.4293C63.8755 54.5203 63.3287 54.5659 62.7935 54.5659C62.235 54.5659 61.5951 54.4862 60.8737 54.3268C60.1523 54.1675 59.4775 53.9057 58.8492 53.5415C58.2209 53.1545 57.7439 52.8016 57.4181 52.4829L56.9295 52.0049C55.4402 55.6016 54.4163 58.7886 53.8579 61.5659C53.2994 64.3659 52.962 66.4488 52.8456 67.8146C52.7758 68.4065 52.7176 68.8163 52.6711 69.0439C51.2749 68.8846 49.7973 68.4407 48.2382 67.7122C46.749 67.0293 46.0043 65.7886 46.0043 63.9902V63.8195C46.0974 63.0911 46.5163 61.5089 47.2609 59.0732C47.9823 56.6602 48.8898 53.7577 49.9834 50.3659C52.1243 43.7642 54.1255 37.2537 55.987 30.8341C57.5229 25.4846 58.2908 21.774 58.2908 19.7024C58.2908 19.2699 58.2558 18.9171 58.186 18.6439C58.0697 18.439 58.0115 18.2683 58.0115 18.1317C58.0115 17.6309 58.6049 17.3805 59.7917 17.3805C60.5596 17.3805 61.5834 17.4829 62.8633 17.6878C64.6318 17.961 65.516 19.0537 65.516 20.9659C65.516 21.1252 65.4695 21.8081 65.3764 23.0146C65.2833 24.2211 64.5503 26.9528 63.1774 31.2098C63.9453 29.1837 65.0506 27.1236 66.4933 25.0293C67.9361 22.935 69.2973 21.1594 70.5772 19.7024C71.8803 18.2455 72.6831 17.4602 72.9856 17.3463ZM57.9417 48.4537C58.2442 48.5447 58.57 48.5902 58.919 48.5902C59.9429 48.5902 61.3391 48.1122 63.1076 47.1561C64.8761 46.2 66.7377 43.7984 68.6923 39.9512C70.6703 36.0813 72.1479 30.1967 73.1252 22.2976L70.3329 25.6781C68.4713 27.9545 66.3654 31.0504 64.0151 34.9659C61.6649 38.8813 59.6404 43.3772 57.9417 48.4537Z" fill="#D10536"/>
<path d="M86.9475 22.7415C87.0871 22.3317 87.471 22.0472 88.0993 21.8878C88.588 21.774 89.0999 21.7171 89.6351 21.7171C89.8213 21.7171 90.1471 21.7398 90.6124 21.7854C91.0778 21.8309 91.5432 21.9447 92.0086 22.1268C92.5671 22.3317 92.9627 22.787 93.1954 23.4927C93.4281 24.1984 93.5677 24.9724 93.6143 25.8146V26.6341C93.6143 27.135 93.6026 27.6585 93.5793 28.2049L93.5095 28.9902L94.6265 27.0781C95.3711 25.826 96.2786 24.3577 97.3491 22.6732C98.4427 20.9886 99.5364 19.452 100.63 18.0634C101.747 16.6748 102.678 15.787 103.422 15.4C103.911 15.2179 104.388 15.1268 104.854 15.1268C105.365 15.1268 105.982 15.2976 106.703 15.639C107.448 15.9577 108.111 16.5154 108.693 17.3122C109.182 17.9724 109.426 18.6098 109.426 19.2244C109.426 19.361 109.414 19.4862 109.391 19.6C108.623 20.9886 107.716 22.8325 106.669 25.1317C105.645 27.4309 104.923 29.4683 104.505 31.2439C104.086 33.0195 103.818 34.7155 103.702 36.3317V36.8098C103.702 37.7659 103.76 38.5398 103.876 39.1317C103.946 39.4276 103.981 39.7008 103.981 39.9512C103.981 40.2016 103.934 40.4748 103.841 40.7707C103.772 41.0667 103.364 41.2374 102.62 41.2829C101.433 41.2146 100.293 40.7707 99.199 39.9512C98.1053 39.1317 97.477 37.8455 97.3141 36.0927C97.2909 35.7285 97.2792 35.3756 97.2792 35.0341C97.2792 34.2146 97.3607 33.3154 97.5236 32.3366C97.7097 31.3577 98.0122 30.2764 98.4311 29.0927C98.8499 27.8862 99.2339 26.8732 99.5829 26.0537L100.107 24.8244L98.5707 26.9415C97.5468 28.3756 96.3368 30.1171 94.9406 32.1659C93.5444 34.1919 92.2181 36.1724 90.9615 38.1073C89.7282 40.0423 88.8323 41.5789 88.2738 42.7171C87.4129 44.6976 86.7962 46.9171 86.4239 49.3756C86.0749 51.8341 85.8189 54.1561 85.656 56.3415C85.6095 56.8423 85.5629 57.3317 85.5164 57.8098C85.3768 57.8325 85.2371 57.8439 85.0975 57.8439C84.2365 57.8439 83.2127 57.5935 82.0259 57.0927C80.8624 56.6146 79.8153 55.8862 78.8845 54.9073C78.0235 53.974 77.593 52.9268 77.593 51.7659V51.5951C77.7326 50.5707 78.2678 48.5561 79.1986 45.5512C80.1294 42.5463 81.1882 39.2911 82.375 35.7854C83.585 32.2797 84.6554 29.2293 85.5862 26.6341L86.9475 22.7415Z" fill="#D10536"/>
<path d="M119.618 39.3707C120.712 39.5528 121.666 39.9398 122.48 40.5317C123.295 41.1008 123.981 41.7268 124.54 42.4098C125.098 43.0699 125.517 43.6504 125.796 44.1512L126.18 44.9024L124.994 46.7463C124.179 47.9984 123.109 49.4325 121.782 51.0488C120.456 52.6423 118.967 54.0878 117.315 55.3854C115.662 56.6602 113.987 57.3317 112.288 57.4H111.939C109.775 57.4 107.669 56.3756 105.621 54.3268C103.597 52.278 102.55 50.4455 102.48 48.8293C102.457 48.5333 102.445 48.226 102.445 47.9073C102.445 44.4927 103.399 40.3951 105.307 35.6146C107.215 30.8341 109.542 26.5317 112.288 22.7073C115.057 18.8602 117.501 16.8797 119.618 16.7659H119.758C120.363 16.7659 121.503 16.9138 123.178 17.2098C124.877 17.4829 126.506 17.9837 128.065 18.7122C129.647 19.4407 130.474 20.4423 130.543 21.7171V22.0244C130.543 24.3008 129.298 26.987 126.809 30.0829C124.342 33.1789 121.689 35.9333 118.85 38.3463C116.035 40.7366 114.266 41.9431 113.545 41.9659H113.335C112.661 41.9659 111.858 41.7837 110.927 41.4195C110.322 43.9919 109.95 46.1772 109.81 47.9756C109.763 48.4764 109.74 48.9089 109.74 49.2732C109.74 50.3203 109.88 50.9805 110.159 51.2537C110.229 51.2992 110.31 51.322 110.403 51.322C110.892 51.322 111.672 50.7301 112.742 49.5463C113.812 48.3398 115.011 46.7577 116.337 44.8C117.664 42.8423 118.757 41.0325 119.618 39.3707ZM124.575 22.0244C122.108 22.1382 119.932 23.3561 118.048 25.6781C116.163 28 114.592 30.7431 113.335 33.9073C115.104 32.4276 116.837 30.7772 118.536 28.9561C120.258 27.1122 121.689 25.4959 122.829 24.1073L124.575 22.0244Z" fill="#D10536"/>
<path d="M143.353 39.3707C144.447 39.5528 145.401 39.9398 146.216 40.5317C147.03 41.1008 147.716 41.7268 148.275 42.4098C148.833 43.0699 149.252 43.6504 149.531 44.1512L149.915 44.9024L148.729 46.7463C147.914 47.9984 146.844 49.4325 145.517 51.0488C144.191 52.6423 142.702 54.0878 141.05 55.3854C139.398 56.6602 137.722 57.3317 136.023 57.4H135.674C133.51 57.4 131.404 56.3756 129.357 54.3268C127.332 52.278 126.285 50.4455 126.215 48.8293C126.192 48.5333 126.18 48.226 126.18 47.9073C126.18 44.4927 127.134 40.3951 129.042 35.6146C130.951 30.8341 133.278 26.5317 136.023 22.7073C138.792 18.8602 141.236 16.8797 143.353 16.7659H143.493C144.098 16.7659 145.238 16.9138 146.914 17.2098C148.612 17.4829 150.241 17.9837 151.8 18.7122C153.383 19.4407 154.209 20.4423 154.279 21.7171V22.0244C154.279 24.3008 153.034 26.987 150.544 30.0829C148.077 33.1789 145.424 35.9333 142.585 38.3463C139.77 40.7366 138.001 41.9431 137.28 41.9659H137.071C136.396 41.9659 135.593 41.7837 134.662 41.4195C134.057 43.9919 133.685 46.1772 133.545 47.9756C133.499 48.4764 133.475 48.9089 133.475 49.2732C133.475 50.3203 133.615 50.9805 133.894 51.2537C133.964 51.2992 134.045 51.322 134.139 51.322C134.627 51.322 135.407 50.7301 136.477 49.5463C137.548 48.3398 138.746 46.7577 140.072 44.8C141.399 42.8423 142.492 41.0325 143.353 39.3707ZM148.31 22.0244C145.843 22.1382 143.668 23.3561 141.783 25.6781C139.898 28 138.327 30.7431 137.071 33.9073C138.839 32.4276 140.573 30.7772 142.271 28.9561C143.993 27.1122 145.424 25.4959 146.565 24.1073L148.31 22.0244Z" fill="#D10536"/>
<path d="M169.218 0.307317C169.683 0.261789 170.102 0.239024 170.474 0.239024C171.033 0.239024 171.591 0.307317 172.15 0.443902C172.731 0.557724 173.232 0.785366 173.651 1.12683C174.069 1.46829 174.372 1.85528 174.558 2.28781C174.768 2.69756 174.896 3.09594 174.942 3.48293C174.989 3.86992 175.012 4.18862 175.012 4.43902L174.977 4.84878L176.722 4.74634C177.862 4.67805 179.259 4.62114 180.911 4.57561C182.563 4.50732 184.192 4.47317 185.797 4.47317C187.403 4.45041 188.718 4.49594 189.742 4.60976C190.719 4.74634 191.522 5.20163 192.15 5.97561C192.778 6.72683 193.255 7.55772 193.581 8.46829C193.86 9.33333 194 10.0732 194 10.6878V10.8244C194 11.3935 193.86 11.678 193.581 11.678H193.476C193.058 11.5642 192.01 11.4732 190.335 11.4049C188.683 11.3138 186.682 11.2341 184.331 11.1659C180.538 11.052 176.815 10.8927 173.162 10.6878C170.812 15.1724 168.403 21.0228 165.937 28.239C163.47 35.4553 161.306 42.1935 159.444 48.4537C158.77 50.5252 158.432 52.665 158.432 54.8732C158.432 55.3057 158.479 56.2959 158.572 57.8439C158.665 59.4146 159.887 60.7805 162.237 61.9415C161.515 62.6699 160.329 63.3301 158.677 63.922C157.56 64.3089 156.443 64.5024 155.326 64.5024C154.79 64.5024 153.976 64.4114 152.882 64.2293C151.789 64.0472 150.858 63.0569 150.09 61.2585C149.741 60.4846 149.566 59.4943 149.566 58.2878C149.566 56.7398 149.857 54.839 150.439 52.5854C150.974 50.5821 151.975 47.3496 153.441 42.8878C154.93 38.4033 156.512 33.6683 158.188 28.6829C159.887 23.6748 161.364 19.3496 162.621 15.7073L164.506 10.2439L161.888 10.3463C160.119 10.4146 157.978 10.4829 155.465 10.5512C153.953 10.5967 152.452 10.6195 150.963 10.6195C149.962 10.6195 148.601 10.6081 146.879 10.5854C145.133 10.5626 143.481 10.4488 141.922 10.2439C140.2 9.97073 138.979 9.53821 138.257 8.94634C137.513 8.33171 137.082 7.69431 136.966 7.03415C136.873 6.53333 136.826 6.1122 136.826 5.77073V5.46342C136.849 5.37236 136.861 5.30407 136.861 5.25854C136.861 5.19024 136.849 5.13333 136.826 5.08781C136.803 4.95122 136.78 4.76911 136.756 4.54146V4.33659C136.756 4.2 136.768 4.0748 136.791 3.96098C136.838 3.84715 136.919 3.79024 137.036 3.79024C137.059 3.79024 137.129 3.80163 137.245 3.82439C137.338 3.82439 137.559 4.0065 137.908 4.37073C138.397 4.73496 140.119 4.95122 143.074 5.01951C144.75 5.06504 146.541 5.08781 148.449 5.08781C149.892 5.08781 151.928 5.06504 154.558 5.01951C157.211 4.95122 159.956 4.86016 162.795 4.74634L167.019 4.60976L169.218 0.307317Z" fill="#D10536"/>
</svg>
